<?xml version="1.0" encoding="UTF-8" standalone="no"?>
<svg
   width="181px"
   height="209px"
   viewBox="0 0 181 209"
   version="1.1"
   id="svg2"
   inkscape:version="1.1.2 (0a00cf5339, 2022-02-04)"
   sodipodi:docname="insectDisease.svg"
   inkscape:export-filename="/media/tad/sanDisk1TB/Web/taddallas.github.io/resources/insectDisease.png"
   inkscape:export-xdpi="800"
   inkscape:export-ydpi="800"
   xmlns:inkscape="http://www.inkscape.org/namespaces/inkscape"
   xmlns:sodipodi="http://sodipodi.sourceforge.net/DTD/sodipodi-0.dtd"
   xmlns="http://www.w3.org/2000/svg"
   xmlns:svg="http://www.w3.org/2000/svg"
   xmlns:rdf="http://www.w3.org/1999/02/22-rdf-syntax-ns#"
   xmlns:cc="http://creativecommons.org/ns#"
   xmlns:dc="http://purl.org/dc/elements/1.1/">
  <sodipodi:namedview
     pagecolor="#ffffff"
     bordercolor="#666666"
     borderopacity="1"
     objecttolerance="10"
     gridtolerance="10"
     guidetolerance="10"
     inkscape:pageopacity="0"
     inkscape:pageshadow="2"
     inkscape:window-width="1069"
     inkscape:window-height="1023"
     id="namedview28"
     showgrid="false"
     inkscape:zoom="1.596911"
     inkscape:cx="46.339464"
     inkscape:cy="151.54257"
     inkscape:window-x="1930"
     inkscape:window-y="19"
     inkscape:window-maximized="0"
     inkscape:current-layer="g4744"
     inkscape:pagecheckerboard="0" />
  <metadata
     id="metadata30">
    <rdf:RDF>
      <cc:Work
         rdf:about="">
        <dc:format>image/svg+xml</dc:format>
        <dc:type
           rdf:resource="http://purl.org/dc/dcmitype/StillImage" />
        <dc:title>edtech-hamburg</dc:title>
      </cc:Work>
    </rdf:RDF>
  </metadata>
  <!-- Generator: Sketch 3.8.3 (29802) - http://www.bohemiancoding.com/sketch -->
  <title
     id="title4">edtech-hamburg</title>
  <desc
     id="desc6">Created with Sketch.</desc>
  <defs
     id="defs8">
    <marker
       inkscape:stockid="Scissors"
       orient="auto"
       refY="0.0"
       refX="0.0"
       id="Scissors"
       style="overflow:visible"
       inkscape:isstock="true">
      <path
         id="schere"
         d="M 9.0898857,-3.6061018 C 8.1198849,-4.7769976 6.3697607,-4.7358294 5.0623558,-4.2327734 L -3.1500488,-1.1548705 C -5.5383421,-2.4615840 -7.8983361,-2.0874077 -7.8983361,-2.7236578 C -7.8983361,-3.2209742 -7.4416699,-3.1119800 -7.5100293,-4.4068519 C -7.5756648,-5.6501286 -8.8736064,-6.5699315 -10.100428,-6.4884954 C -11.327699,-6.4958500 -12.599867,-5.5553341 -12.610769,-4.2584343 C -12.702194,-2.9520479 -11.603560,-1.7387447 -10.304005,-1.6532027 C -8.7816644,-1.4265411 -6.0857470,-2.3487593 -4.8210600,-0.082342643 C -5.7633447,1.6559151 -7.4350844,1.6607341 -8.9465707,1.5737277 C -10.201445,1.5014928 -11.708664,1.8611256 -12.307219,3.0945882 C -12.885586,4.2766744 -12.318421,5.9591904 -10.990470,6.3210002 C -9.6502788,6.8128279 -7.8098011,6.1912892 -7.4910978,4.6502760 C -7.2454393,3.4624530 -8.0864637,2.9043186 -7.7636052,2.4731223 C -7.5199917,2.1477623 -5.9728246,2.3362771 -3.2164999,1.0982979 L 5.6763468,4.2330688 C 6.8000164,4.5467672 8.1730685,4.5362646 9.1684433,3.4313614 L -0.051640930,-0.053722219 L 9.0898857,-3.6061018 z M -9.2179159,-5.5066058 C -7.9233569,-4.7838060 -8.0290767,-2.8230356 -9.3743431,-2.4433169 C -10.590861,-2.0196559 -12.145370,-3.2022863 -11.757521,-4.5207817 C -11.530373,-5.6026336 -10.104134,-6.0014137 -9.2179159,-5.5066058 z M -9.1616516,2.5107591 C -7.8108215,3.0096239 -8.0402087,5.2951947 -9.4138723,5.6023681 C -10.324932,5.9187072 -11.627422,5.4635705 -11.719569,4.3902287 C -11.897178,3.0851737 -10.363484,1.9060805 -9.1616516,2.5107591 z "
         style="fill:#398887;stroke:#398887;stroke-opacity:1;fill-opacity:1" />
    </marker>
    <marker
       inkscape:stockid="DotL"
       orient="auto"
       refY="0.0"
       refX="0.0"
       id="DotL"
       style="overflow:visible"
       inkscape:isstock="true">
      <path
         id="path7113"
         d="M -2.5,-1.0 C -2.5,1.7600000 -4.7400000,4.0 -7.5,4.0 C -10.260000,4.0 -12.5,1.7600000 -12.5,-1.0 C -12.5,-3.7600000 -10.260000,-6.0 -7.5,-6.0 C -4.7400000,-6.0 -2.5,-3.7600000 -2.5,-1.0 z "
         style="fill-rule:evenodd;stroke:#398887;stroke-width:1pt;stroke-opacity:1;fill:#398887;fill-opacity:1"
         transform="scale(0.8) translate(7.4, 1)" />
    </marker>
    <inkscape:path-effect
       cusp_linecap_type="round"
       end_linecap_type="zerowidth"
       miter_limit="4"
       linejoin_type="round"
       start_linecap_type="zerowidth"
       interpolator_beta="0.2"
       interpolator_type="CubicBezierJohan"
       sort_points="true"
       offset_points="0,0.5"
       is_visible="true"
       id="path-effect3373"
       effect="powerstroke" />
    <clipPath
       clipPathUnits="userSpaceOnUse"
       id="clipPath5859">
      <path
         d="M 0,660 H 660 V 0 H 0 Z"
         id="path5857"
         inkscape:connector-curvature="0" />
    </clipPath>
  </defs>
  <g
     fill-rule="evenodd"
     fill="none"
     stroke-width="1"
     stroke="none"
     id="Merch">
    <g
       transform="translate(-293.000000, -69.000000)"
       id="Mule-Sticker">
      <g
         transform="translate(293.000000, 69.000000)"
         id="Group-2">
        <g
           id="g4842"
           transform="matrix(0.98316643,0,0,0.98316643,3.0889609,1.5541748)">
          <g
             id="g4744">
            <polygon
               points="90.5,0.74554102 181,52.622771 181,156.37723 90.5,208.25446 -1.5258905e-12,156.37723 -1.5827339e-12,52.622771 "
               id="Polygon-1"
               style="fill:#caf4ff;stroke:#000000;stroke-width:5;stroke-miterlimit:4;stroke-dasharray:none;stroke-opacity:1;fill-opacity:1" />
          </g>
        </g>
        <text
           xml:space="preserve"
           style="font-size:22.4967px;line-height:1.25;font-family:sans-serif;letter-spacing:0px;word-spacing:0px;stroke-width:1.05453"
           x="16.106182"
           y="67.160568"
           id="text2155"><tspan
             sodipodi:role="line"
             id="tspan2153"
             x="16.106182"
             y="67.160568"
             style="font-size:22.4967px;fill:#000000;stroke-width:1.05453">insectDisease</tspan></text>
        <g
           id="g5851"
           inkscape:label="flying-wasp-silhouette-freesvg.org"
           transform="matrix(0.29452552,0,0,-0.29452552,37.802422,227.15416)">
          <g
             id="g6642"
             transform="matrix(0.59426957,-0.16776906,0.16776906,0.59426957,-50.929213,242.3569)">
            <path
               inkscape:connector-curvature="0"
               id="path5953"
               style="fill:#231f20;fill-opacity:1;fill-rule:evenodd;stroke:none"
               d="m 80.507,441.746 c -5.182,-2.118 -8.362,-6.333 -7.103,-9.413 1.258,-3.082 6.482,-3.862 11.663,-1.745 5.183,2.12 8.363,6.334 7.103,9.415 -1.258,3.082 -6.48,3.863 -11.663,1.743 m 22.893,5.513 c 1.322,-1.094 2.338,-2.421 2.972,-3.968 3.299,-8.074 -5.035,-19.124 -18.619,-24.675 -13.582,-5.551 -27.269,-3.506 -30.569,4.57 -1.651,4.04 -0.391,8.823 2.982,13.29 -6.065,-5.999 -8.792,-12.972 -6.47,-18.655 3.77,-9.221 19.396,-11.555 34.905,-5.215 15.508,6.337 25.025,18.951 21.256,28.172 -1.154,2.821 -3.421,5 -6.457,6.481 m 239.647,-21.538 1.2,1.377 c 14.96,17.164 34.61,29.582 56.537,35.728 l -11.808,-6.633 c -12.056,-6.772 -22.985,-15.214 -32.502,-25.012 29.809,11.926 59.73,22.614 89.669,31.837 l 2.992,3.431 c 14.957,17.165 34.606,29.582 56.531,35.727 l -11.805,-6.633 c -13.693,-7.689 -25.933,-17.535 -36.297,-29.076 42.178,12.464 84.375,21.969 126.358,27.9 -25.389,-7.638 -51.273,-15.412 -77.581,-23.61 18.203,-2.369 35.654,-9.007 50.903,-19.444 l -12.666,4.794 c -17.894,6.772 -36.861,9.836 -55.763,9.142 -23.885,-7.571 -48.108,-15.54 -72.628,-24.12 43.902,-2.67 81.746,-11.038 121.137,-38.003 l -26.288,9.948 c -22.058,8.348 -44.899,13.978 -68.036,16.876 9.747,-10.193 16.463,-22.912 19.378,-36.733 l -3.794,7.924 c -5.423,11.335 -13.064,21.38 -22.399,29.582 -15.291,1.559 -30.691,1.923 -46.058,1.089 -20.56,-7.514 -41.32,-15.502 -62.25,-24.087 21.294,-2.531 41.732,-10.175 59.534,-22.362 l -14.446,5.467 c -19.403,7.343 -39.909,10.866 -60.41,10.514 -19.134,-8.087 -38.408,-16.696 -57.802,-25.916 3.863,-4.7 7.241,-9.724 10.107,-14.997 l 9.851,2.724 c 39.369,10.881 83.188,14.632 126.073,10.792 l -25.681,-1.39 c -37.624,-2.036 -73.9,-8.735 -106.625,-19.527 0.661,-1.515 1.282,-3.045 1.864,-4.591 l 133.785,5.412 c 69.492,2.81 147.598,34.235 191.184,90.14 18.022,23.113 25.926,52.967 9.447,79.056 -7.946,12.575 -23.937,18.485 -38.065,20.178 C 548.01,545.461 527.79,541.37 511.09,532.744 419.852,485.625 326.933,441.753 232.63,401.115 l -5.873,-2.532 c 7.808,-4.259 15.071,-9.638 21.538,-16.061 31.378,15.597 62.996,30.085 94.752,43.199 m 160.436,114.133 c -7.122,4.24 -15.97,6.006 -23.944,6.207 -15.193,0.383 -31.144,-4.439 -43.926,-12.642 -66.093,-42.426 -133.624,-82.624 -202.382,-120.587 91.944,39.693 182.121,82.075 270.252,127.022 m -298.31,-132.718 13.858,7.584 c 77.323,42.324 152.721,87.06 225.918,134.049 14.954,9.599 33.17,14.832 50.148,14.401 13.348,-0.335 24.958,-4.146 33.127,-10.705 18.678,8.737 40.106,12.375 59.628,10.038 20.872,-2.498 37.624,-11.594 46.122,-25.045 17.412,-27.559 13.52,-62.146 -10.45,-92.888 C 579.48,388.079 498.042,349.584 415.291,346.137 l -142.188,-5.752 c -27.923,12.603 -68.673,16.379 -89.388,10.296 31.517,4.728 74.514,-9.525 92.598,-30.802 0.205,-3.854 0.174,-7.736 -0.097,-11.626 17.579,0.334 35.208,-2.732 51.88,-9.199 l 22.121,-8.589 c -9.164,-3.131 -16.363,-10.329 -19.494,-19.494 l -1.781,-5.205 c 19.63,21.306 50.745,31.705 84.328,33.288 -6.969,-14.033 -10.214,-29.979 -8.854,-46.316 l 2.022,-24.24 c 6.061,28.498 22.924,52.837 46.159,68.597 26.291,-3.764 51.989,-12.283 72.994,-24.605 -7.565,-7.674 -13.65,-16.936 -17.695,-27.414 l -8.017,-20.761 c 12.208,15.69 28.436,27.075 46.438,33.382 1.855,-1.622 3.64,-3.281 5.341,-4.982 42.625,-42.625 58.405,-105.213 41.081,-162.954 -2.967,-9.889 -10.841,-17.533 -20.813,-20.208 -9.973,-2.675 -20.617,0.011 -28.133,7.092 -13.54,12.757 -26.697,25.918 -39.455,39.458 -12.887,13.673 -32.387,18.898 -50.383,13.501 -37.267,-11.181 -77.666,-0.997 -105.179,26.515 -27.484,27.485 -37.676,67.834 -26.547,105.07 -19.202,3.752 -39.576,1.922 -58.576,-6.175 l -7.364,-3.141 c 6.166,8.447 10.301,18.102 12.206,28.213 -7.007,-12.222 -18.605,-21.484 -32.599,-25.425 10.218,-24.513 18.719,-49.756 25.418,-75.549 l 6.738,-25.939 c 1.418,-2.943 1.109,-6.424 -0.808,-9.069 -0.226,-0.309 -0.472,-0.606 -0.734,-0.882 2.493,-11.965 8.4,-23.026 17.099,-31.796 12.162,-12.257 19.43,-28.533 20.44,-45.773 0.194,-3.351 -2.179,-6.306 -5.497,-6.834 -3.314,-0.528 -6.491,1.54 -7.346,4.788 -5.011,19.004 -17.946,34.941 -35.512,43.759 -7.589,3.807 -13.174,10.69 -15.34,18.898 l -1.714,6.507 20.238,7.749 c -5.198,0.696 -10.488,-0.147 -15.211,-2.427 -3.266,-1.575 -7.136,-1.23 -10.071,0.895 -2.937,2.132 -4.468,5.701 -3.987,9.296 4.73,35.27 0.992,71.035 -10.742,104.378 -3.432,0.14 -6.83,0.602 -10.153,1.378 6.315,-25.019 10.744,-50.526 13.223,-76.301 l 2.323,-24.143 c 0.849,-2.828 0.076,-5.895 -2.012,-7.984 -0.248,-0.247 -0.509,-0.474 -0.781,-0.686 0.521,-11.047 4.223,-21.777 10.749,-30.853 9.119,-12.689 13.295,-28.27 11.741,-43.816 -0.304,-3.024 -2.846,-5.325 -5.885,-5.325 -3.039,0 -5.583,2.301 -5.885,5.325 -1.769,17.698 -11.057,33.783 -25.499,44.165 -6.239,4.483 -10.25,11.432 -11.015,19.078 l -0.605,6.059 19.193,4.039 c -4.548,1.367 -9.393,1.367 -13.94,0 -3.145,-0.944 -6.552,-0.084 -8.874,2.238 -2.321,2.321 -3.18,5.73 -2.236,8.875 10.381,34.602 11.329,71.276 2.847,106.26 -4.55,2.854 -8.717,6.4 -12.335,10.593 -7.135,8.272 -13.796,16.916 -19.962,25.883 -2.969,-11.08 -7.75,-21.676 -14.221,-31.336 -3.496,-5.217 -9.366,-8.352 -15.647,-8.352 -6.284,0 -12.152,3.135 -15.649,8.352 -13.292,19.844 -19.638,43.533 -18.05,67.366 l -5.646,-3.423 c -11.711,-7.095 -21.533,-16.917 -28.629,-28.628 -1.648,-2.72 -4.89,-4.023 -7.961,-3.199 -0.249,0.068 -0.493,0.145 -0.729,0.239 1.207,-2.278 2.848,-4.332 4.885,-6.176 -3.469,-3.499 -3.469,-9.141 0,-12.639 8.087,-8.155 13.928,-18.271 16.949,-29.354 0.828,-3.045 -0.496,-6.263 -3.228,-7.838 -2.731,-1.576 -6.181,-1.116 -8.401,1.122 -14.35,14.478 -19.972,35.461 -14.783,55.172 l 0.814,3.085 c -0.494,0.953 -0.778,2.017 -0.801,3.141 -0.29,13.691 5.02,26.903 14.702,36.586 9.683,9.683 22.899,14.995 36.588,14.706 7.35,-0.158 13.273,-6.08 13.427,-13.428 0.378,-17.794 5.051,-35.232 13.621,-50.828 l 2.163,11.074 c 1.923,9.856 5.597,19.205 10.778,27.646 -6.162,12.072 -11.508,24.573 -15.987,37.424 -0.602,1.721 -1.027,3.482 -1.284,5.258 -0.813,5.645 0.106,11.142 2.357,15.951 -1.957,3.631 -3.216,7.604 -3.703,11.717 -0.287,2.41 -2.402,4.18 -4.824,4.039 l 3.765,2.624 c 6.712,4.676 10.775,12.196 11.108,20.241 -4.455,-11.115 -16.724,-22.386 -33.291,-29.159 -24.591,-10.052 -49.37,-6.388 -55.459,8.166 -0.047,-3.447 0.483,-6.902 1.592,-10.216 l 2.231,-6.673 c -8.88,2.104 -18.219,-0.398 -24.858,-6.66 l -7.358,-6.944 c 3.657,14.869 11.462,28.39 22.511,38.991 l 5.686,5.454 c 3.782,11.694 16.473,23.845 33.95,30.989 14.163,5.79 28.387,7.029 39.068,4.259 -11.858,21.977 -30.671,39.513 -53.605,49.776 l -6.6,2.953 c -2.155,0.438 -3.888,2.039 -4.499,4.151 -0.614,2.113 -0.002,4.391 1.585,5.914 1.586,1.524 3.885,2.042 5.972,1.345 27.471,-9.174 49.028,-30.731 58.202,-58.202 l 2.336,-6.996 c 6.226,-2.301 10.883,-6.179 13.056,-11.497 0.771,-1.88 1.188,-3.846 1.287,-5.869 l 10e-4,0.005 0.55,-6.036 c 0.826,-9.304 6.551,-17.461 15.021,-21.397 l -4.138,-0.438 c -6.651,-0.701 -12.445,-4.841 -15.262,-10.907 -0.733,-1.576 -1.236,-3.219 -1.514,-4.889 4.264,5.822 10.75,10.016 18.441,11.204 l 16.97,3.232 c 14.115,2.689 28.42,2.115 41.923,-1.409 m -100.455,55.286 -1.236,1.833 c -16.199,24.007 -42.745,38.999 -71.669,40.477 -2.197,0.113 -4.273,-1.002 -5.395,-2.896 -1.118,-1.893 -1.097,-4.251 0.059,-6.122 1.156,-1.872 3.254,-2.948 5.448,-2.794 l 7.149,-1.078 c 22.69,-3.416 43.691,-13.599 60.35,-29.044 1.821,-0.036 3.588,-0.162 5.294,-0.376" />
          </g>
        </g>
      </g>
    </g>
  </g>
</svg>
